<?xml version="1.0" encoding="UTF-8" standalone="no"?>
<!DOCTYPE svg PUBLIC "-//W3C//DTD SVG 1.1//EN" "http://www.w3.org/Graphics/SVG/1.1/DTD/svg11.dtd">
<svg width="100%" height="100%" viewBox="0 0 347 241" version="1.1" xmlns="http://www.w3.org/2000/svg" xmlns:xlink="http://www.w3.org/1999/xlink" xml:space="preserve" xmlns:serif="http://www.serif.com/" style="fill-rule:evenodd;clip-rule:evenodd;stroke-linejoin:round;stroke-miterlimit:2;">
    <g transform="matrix(0.1,0,0,-0.1,0,240.843)">
        <path d="M955,2391C881,2370 766,2317 723,2284C705,2271 687,2245 682,2227C677,2210 661,2164 646,2126C632,2089 620,2038 620,2013C620,1965 608,1936 579,1907C547,1877 557,1789 604,1678C622,1636 654,1610 687,1610C709,1610 710,1607 710,1521L710,1432L647,1421C612,1415 576,1410 566,1410C555,1410 535,1380 505,1318C480,1268 460,1221 460,1215C460,1208 416,1180 363,1152C79,1001 0,955 0,939C0,932 11,935 26,945C40,954 80,976 114,994C147,1012 220,1052 275,1082C330,1113 395,1148 419,1161C443,1174 467,1192 471,1200C475,1208 496,1254 518,1301L558,1388L730,1412L730,1514C730,1569 726,1620 722,1625C718,1631 702,1635 685,1635C663,1635 650,1643 633,1668C587,1737 563,1884 595,1897C618,1905 640,1965 640,2017C640,2042 646,2076 654,2093C662,2111 676,2150 686,2180C696,2210 713,2246 725,2259C770,2311 945,2379 1057,2387C1122,2392 1134,2390 1192,2363C1226,2346 1285,2307 1321,2277C1423,2192 1444,2133 1454,1907C1457,1842 1462,1786 1465,1781C1468,1776 1457,1739 1441,1698C1426,1658 1410,1617 1406,1607C1403,1596 1391,1586 1380,1583C1369,1580 1360,1574 1360,1570C1360,1566 1342,1536 1321,1503C1300,1470 1278,1422 1272,1396C1263,1351 1263,1349 1316,1267C1369,1187 1373,1184 1458,1143C1506,1119 1564,1094 1588,1085C1640,1068 1751,991 1773,957C1782,943 1831,889 1882,837C1934,785 1991,715 2010,681C2029,648 2048,620 2052,620C2056,620 2075,634 2094,650C2131,683 2152,747 2129,760C2122,765 2117,792 2116,823C2116,872 2114,877 2099,869C2089,864 2055,862 2022,864C1978,866 1956,873 1939,888C1902,923 1906,939 1949,933C1973,930 1981,931 1971,938C1957,948 1965,994 1980,985C1985,982 1992,984 1995,990C1999,996 1984,1018 1962,1039C1940,1060 1908,1109 1890,1146C1873,1184 1853,1224 1847,1235C1841,1246 1831,1266 1823,1280C1816,1294 1810,1332 1810,1366C1810,1510 1896,1677 2047,1826C2138,1915 2177,1931 2249,1905C2274,1896 2300,1889 2305,1890C2311,1890 2339,1893 2368,1896C2412,1901 2430,1898 2474,1876C2545,1841 2616,1771 2674,1677C2739,1573 2760,1494 2760,1359C2760,1283 2765,1242 2776,1214C2798,1164 2804,1110 2789,1110C2781,1110 2781,1106 2787,1098C2792,1091 2797,1072 2798,1055L2800,1025L2782,1047C2765,1070 2765,1069 2768,1015C2772,955 2755,903 2729,895C2720,892 2704,880 2694,869C2676,849 2676,848 2700,829C2714,818 2765,789 2814,764C2895,723 2906,720 2928,731C2949,743 2954,742 2966,725C2974,715 2980,699 2980,690C2980,677 2987,675 3010,678C3027,680 3043,686 3046,691C3057,709 3085,699 3131,660C3171,627 3183,621 3209,626C3246,634 3260,611 3240,575C3224,545 3240,516 3272,515C3297,515 3310,479 3292,457C3285,449 3293,418 3318,360C3337,313 3374,214 3400,140C3426,66 3453,4 3459,2C3471,-2 3409,183 3350,330C3320,402 3311,437 3313,475C3315,521 3313,525 3285,534C3269,540 3254,545 3252,546C3251,547 3255,559 3261,574C3270,594 3271,606 3261,626C3251,648 3245,651 3217,647C3186,643 3161,656 3109,705C3091,722 3044,725 3035,710C3024,692 3000,700 2990,725C2979,753 2937,768 2916,751C2905,741 2893,743 2861,759C2839,771 2819,784 2816,789C2812,794 2797,801 2782,805C2767,808 2744,820 2730,831L2705,852L2732,871C2764,895 2790,943 2790,980C2790,995 2797,1013 2805,1020C2825,1036 2820,1161 2797,1214C2785,1242 2780,1282 2780,1359C2780,1494 2759,1573 2694,1681C2641,1769 2548,1864 2484,1896C2457,1909 2421,1916 2365,1917C2321,1918 2267,1924 2244,1930C2176,1949 2131,1930 2043,1847C1926,1735 1843,1606 1805,1476C1782,1398 1788,1292 1816,1253C1828,1238 1843,1207 1850,1185C1866,1135 1936,1024 1955,1016C1967,1012 1967,1007 1953,982C1943,965 1931,954 1924,957C1912,961 1897,945 1894,923C1893,917 1907,897 1926,879C1960,846 1961,846 2067,841C2084,840 2091,832 2096,803C2100,782 2107,760 2112,753C2125,736 2113,700 2082,668L2057,641L2023,698C2004,729 1923,823 1842,906C1685,1067 1701,1056 1487,1151C1380,1198 1381,1197 1324,1290C1288,1348 1285,1359 1292,1393C1302,1442 1369,1556 1395,1568C1416,1578 1495,1764 1485,1780C1482,1785 1477,1835 1475,1892C1464,2114 1446,2179 1378,2249C1320,2308 1221,2377 1170,2395C1115,2414 1030,2413 955,2391Z" style="fill-rule:nonzero;"/>
    </g>
</svg>
